<svg xmlns="http://www.w3.org/2000/svg"  viewBox="0 0 64 64" width="512px" height="512px"><linearGradient id="rkZSpHj6lE~8MNF7f6jGaa" x1="58" x2="58" y1="21.912" y2="11.142" gradientTransform="matrix(1 0 0 -1 0 64)" gradientUnits="userSpaceOnUse"><stop offset="0" stop-color="#6dc7ff"/><stop offset="1" stop-color="#e6abff"/></linearGradient><polygon fill="url(#rkZSpHj6lE~8MNF7f6jGaa)" points="58,42 52,53 64,53"/><linearGradient id="rkZSpHj6lE~8MNF7f6jGab" x1="6" x2="6" y1="21.912" y2="11.142" gradientTransform="matrix(1 0 0 -1 0 64)" gradientUnits="userSpaceOnUse"><stop offset="0" stop-color="#6dc7ff"/><stop offset="1" stop-color="#e6abff"/></linearGradient><polygon fill="url(#rkZSpHj6lE~8MNF7f6jGab)" points="6,42 0,53 12,53"/><linearGradient id="rkZSpHj6lE~8MNF7f6jGac" x1="32" x2="32" y1="58" y2="47.049" gradientTransform="matrix(1 0 0 -1 0 64)" gradientUnits="userSpaceOnUse"><stop offset="0" stop-color="#6dc7ff"/><stop offset="1" stop-color="#e6abff"/></linearGradient><polygon fill="url(#rkZSpHj6lE~8MNF7f6jGac)" points="32,17 38,6 26,6"/><linearGradient id="rkZSpHj6lE~8MNF7f6jGad" x1="24" x2="24" y1="53" y2="10.331" gradientTransform="matrix(1 0 0 -1 0 64)" gradientUnits="userSpaceOnUse"><stop offset="0" stop-color="#1a6dff"/><stop offset="1" stop-color="#c822ff"/></linearGradient><path fill="url(#rkZSpHj6lE~8MNF7f6jGad)" d="M20,53h-5c-0.355,0-0.685-0.188-0.864-0.496l-7-12c-0.189-0.325-0.181-0.729,0.023-1.045	l8.334-12.964c0.251-0.392,0.741-0.558,1.181-0.399L18,26.575V23c0-0.19,0.055-0.376,0.156-0.537l7-11	c0.188-0.296,0.506-0.472,0.867-0.463c0.351,0.009,0.671,0.199,0.845,0.504l4,7c0.166,0.29,0.176,0.645,0.026,0.943L24.618,32h7.563	l0.839-4.196c0.084-0.419,0.424-0.738,0.848-0.795c0.43-0.057,0.837,0.162,1.027,0.544l6,12c0.155,0.31,0.139,0.678-0.044,0.973	S40.347,41,40,41H21.58l-3.421,5.987l2.698,4.498c0.186,0.309,0.19,0.693,0.013,1.008C20.692,52.807,20.36,53,20,53z M15.574,51	h2.659l-2.091-3.485c-0.187-0.311-0.19-0.696-0.011-1.011l4-7C20.31,39.192,20.642,39,21,39h17.382l-3.973-7.946l-0.429,2.143	C33.887,33.663,33.477,34,33,34H23c-0.347,0-0.668-0.18-0.851-0.475s-0.199-0.663-0.044-0.973l6.761-13.521l-2.912-5.097L20,23.291	V28c0,0.326-0.159,0.631-0.426,0.818c-0.266,0.188-0.608,0.232-0.914,0.122l-1.916-0.692L9.173,40.025L15.574,51z"/><linearGradient id="rkZSpHj6lE~8MNF7f6jGae" x1="45.001" x2="45.001" y1="53" y2="10.33" gradientTransform="matrix(1 0 0 -1 0 64)" gradientUnits="userSpaceOnUse"><stop offset="0" stop-color="#1a6dff"/><stop offset="1" stop-color="#c822ff"/></linearGradient><path fill="url(#rkZSpHj6lE~8MNF7f6jGae)" d="M49,53h-5c-0.36,0-0.692-0.193-0.87-0.507c-0.178-0.314-0.173-0.699,0.013-1.008l2.728-4.545	L33.094,19.42c-0.137-0.294-0.122-0.636,0.039-0.917l4-7C37.306,11.2,37.624,11.01,37.974,11c0.35-0.002,0.679,0.165,0.867,0.459	l9.301,14.469c0.156,0.242,0.2,0.54,0.12,0.817l-0.83,2.892l2.002-0.47c0.41-0.093,0.841,0.077,1.069,0.433l6.338,9.859	c0.204,0.316,0.212,0.72,0.023,1.045l-7,12C49.685,52.812,49.355,53,49,53z M45.767,51h2.659l6.401-10.975l-5.624-8.75l-2.975,0.698	c-0.349,0.079-0.708-0.026-0.953-0.284c-0.244-0.257-0.335-0.624-0.236-0.966l1.176-4.096l-8.165-12.7l-2.925,5.12l12.782,27.531	c0.14,0.301,0.121,0.651-0.05,0.936L45.767,51z"/></svg>